<?xml version="1.0" encoding="utf-8"?>
<!-- Generator: Adobe Illustrator 22.1.0, SVG Export Plug-In . SVG Version: 6.00 Build 0)  -->
<svg version="1.1" xmlns="http://www.w3.org/2000/svg" xmlns:xlink="http://www.w3.org/1999/xlink" x="0px" y="0px"
	 viewBox="0 0 841.9 224.8" enable-background="new 0 0 841.9 224.8" xml:space="preserve">
<g id="Layer_1">
	<g>
		
			<image overflow="visible" enable-background="new    " width="1268" height="370" id="lisa_pearson_Image_2_" xlink:href="32E020EC.png"  transform="matrix(0.6217 0 0 0.6217 26.6674 0)">
		</image>
		<path fill="#FFFFFF" d="M416.7,200.8l-4.9-18l-4.9,18c-0.3,0.9-1,1.5-2,1.5s-1.8-0.6-2-1.5l-5.9-20.7c0-0.1-0.1-0.3-0.1-0.5
			c0-0.9,0.7-1.6,1.6-1.6c0.7,0,1.3,0.5,1.5,1.2l5.1,19l5.2-19c0.2-0.7,0.8-1.2,1.5-1.2c0.7,0,1.3,0.5,1.5,1.2l5.2,19l5-19
			c0.2-0.7,0.8-1.2,1.5-1.2c0.9,0,1.6,0.7,1.6,1.6c0,0.1,0,0.3-0.1,0.5l-5.9,20.7c-0.2,0.9-1,1.5-2,1.5
			C417.8,202.3,416.9,201.7,416.7,200.8z"/>
		<path fill="#FFFFFF" d="M436.5,184.4c5.3,0,8.4,4.1,8.4,8.6c0,0.9-0.6,1.4-1.6,1.4h-12.5c0.2,3.3,2.5,6,6.3,6
			c1.7,0,3.3-0.6,4.7-1.7c0.2-0.1,0.4-0.1,0.6-0.1c0.6,0,1.1,0.5,1.1,1.1c0,0.4-0.2,0.7-0.5,0.9c-1.7,1.3-3.8,2.1-6.2,2.1
			c-5.1,0-8.9-3.7-8.9-9.1C428,188.5,431.6,184.4,436.5,184.4z M430.8,192.4h11.4c0-2.6-1.8-5.8-5.7-5.8
			C432.8,186.6,430.9,189.7,430.8,192.4z"/>
		<path fill="#FFFFFF" d="M465.5,193.5c0,5.7-3.2,9.1-7.7,9.1c-2.4,0-4.5-1.3-5.9-3v1.4c0,0.7-0.6,1.3-1.3,1.3
			c-0.8,0-1.4-0.6-1.4-1.3v-21.6c0-0.7,0.6-1.3,1.4-1.3c0.7,0,1.3,0.6,1.3,1.3v8.1c1.4-1.9,3.5-3.1,5.9-3.1
			C462.3,184.4,465.5,188,465.5,193.5z M462.7,193.5c0-3.9-2.1-6.7-5.6-6.7c-2.1,0-4.2,1.3-5.2,2.8v7.9c0.9,1.5,3.1,2.7,5.2,2.7
			C460.6,200.2,462.7,197.4,462.7,193.5z"/>
		<path fill="#28A9A9" d="M498.4,201c0,0.8-0.6,1.3-1.3,1.3c-0.3,0-0.6-0.1-0.8-0.3c-0.8-0.6-1.8-1.6-2.9-2.6
			c-1.8,1.8-4.1,3.1-7.1,3.1c-4.1,0-7.5-2.2-7.5-6.7c0-3.7,2.5-5.7,5.3-7.2c-1.1-1.8-1.9-3.7-1.9-5.4c0-3.2,2.7-5.6,6-5.6
			c3.1,0,5.4,1.7,5.4,4.7c0,3.6-3.1,5.2-6.1,6.7c1,1.3,2,2.6,2.8,3.5c1,1.1,1.9,2.1,2.9,3.1c1-1.5,1.7-3.1,2.2-4.4
			c0.2-0.4,0.6-0.8,1.1-0.8c0.7,0,1.3,0.5,1.3,1.2c0,0.2,0,0.4-0.1,0.6c-0.7,1.6-1.6,3.4-2.7,5c0.9,0.8,1.8,1.7,2.8,2.4
			C498.2,200.3,498.4,200.7,498.4,201z M491.7,197.9c-1.4-1.4-2.7-2.8-3.4-3.5c-1-1.2-2.1-2.4-3-3.8c-2,1.2-3.6,2.7-3.6,5.2
			c0,3,2.3,4.6,4.8,4.6C488.6,200.4,490.3,199.4,491.7,197.9z M486.5,187.6c2.6-1.3,4.8-2.6,4.8-4.9c0-1.8-1.2-2.7-2.8-2.7
			c-1.8,0-3.3,1.4-3.3,3.5C485.1,184.7,485.7,186.1,486.5,187.6z"/>
		<path fill="#FFFFFF" d="M533.5,191.5v5.9c0,0.8-0.2,1.4-0.8,2c-2.2,2-5.1,3.3-8.6,3.3c-6.8,0-12.3-5-12.3-12.5
			c0-7.5,5.5-12.4,12.3-12.4c3.5,0,6.2,1.2,8.3,3.3c0.3,0.2,0.4,0.6,0.4,1c0,0.8-0.6,1.4-1.4,1.4c-0.4,0-0.8-0.1-1-0.4
			c-1.6-1.6-3.8-2.6-6.3-2.6c-5.3,0-9.3,4-9.3,9.8c0,5.7,4,9.8,9.3,9.8c2.9,0,5.3-1.4,6.4-2.6v-4.9h-7.1c-0.7,0-1.3-0.6-1.3-1.3
			s0.6-1.3,1.3-1.3h8.5C532.9,189.9,533.5,190.4,533.5,191.5z"/>
		<path fill="#FFFFFF" d="M546.9,185.8c0,0.6-0.5,1.2-1.5,1.3c-1.6,0.1-3.7,1.3-4.5,2.7V201c0,0.7-0.6,1.3-1.3,1.3
			c-0.8,0-1.4-0.6-1.4-1.3v-15c0-0.7,0.6-1.3,1.3-1.3c0.8,0,1.4,0.6,1.4,1.3v1.6c1-1.4,2.5-2.6,3.9-2.9c0.4-0.1,0.6-0.2,0.9-0.2
			C546.5,184.5,546.9,185.1,546.9,185.8z"/>
		<path fill="#FFFFFF" d="M563.7,190.3V201c0,0.7-0.6,1.3-1.4,1.3c-0.7,0-1.3-0.6-1.3-1.3v-0.8c-1.4,1.6-3.4,2.4-5.8,2.4
			c-3,0-6.1-2-6.1-5.8c0-3.9,3.1-5.7,6.1-5.7c2.4,0,4.4,0.8,5.8,2.4v-3.1c0-2.3-1.9-3.7-4.4-3.7c-1.7,0-3.2,0.5-4.5,1.7
			c-0.2,0.1-0.4,0.2-0.7,0.2c-0.6,0-1.1-0.5-1.1-1.1c0-0.4,0.2-0.7,0.5-0.9c1.8-1.5,3.8-2.3,6.3-2.3
			C560.6,184.4,563.7,186,563.7,190.3z M561,198.5v-3.3c-1-1.4-2.9-2.2-4.8-2.2c-2.5,0-4.3,1.6-4.3,3.8c0,2.2,1.8,3.8,4.3,3.8
			C558.1,200.7,560,200,561,198.5z"/>
		<path fill="#FFFFFF" d="M585.4,193.5c0,5.6-3.2,9.1-7.7,9.1c-2.3,0-4.4-1.1-5.9-3.1v8.1c0,0.7-0.6,1.3-1.3,1.3
			c-0.8,0-1.4-0.6-1.4-1.3V186c0-0.7,0.6-1.3,1.4-1.3c0.7,0,1.3,0.6,1.3,1.3v1.4c1.3-1.8,3.4-3,5.9-3
			C582.2,184.4,585.4,187.8,585.4,193.5z M582.6,193.5c0-3.9-2.1-6.7-5.6-6.7c-2.1,0-4.2,1.3-5.2,2.8v7.8c0.9,1.5,3.1,2.8,5.2,2.8
			C580.5,200.2,582.6,197.3,582.6,193.5z"/>
		<path fill="#FFFFFF" d="M601.5,201v-10.3c0-3.1-1.6-4-3.9-4c-2.1,0-4.1,1.3-5.1,2.7V201c0,0.7-0.6,1.3-1.3,1.3
			c-0.8,0-1.4-0.6-1.4-1.3v-21.6c0-0.7,0.6-1.3,1.4-1.3c0.7,0,1.3,0.6,1.3,1.3v8c1.2-1.4,3.6-3,6.2-3c3.6,0,5.5,1.8,5.5,5.5V201
			c0,0.7-0.6,1.3-1.4,1.3C602.1,202.3,601.5,201.7,601.5,201z"/>
		<path fill="#FFFFFF" d="M609.2,179.5c0-1,0.8-1.8,1.8-1.8c1,0,1.8,0.8,1.8,1.8c0,1-0.8,1.8-1.8,1.8
			C610,181.3,609.2,180.5,609.2,179.5z M609.6,201v-15c0-0.7,0.6-1.3,1.4-1.3c0.7,0,1.3,0.6,1.3,1.3v15c0,0.7-0.6,1.3-1.4,1.3
			C610.2,202.3,609.6,201.7,609.6,201z"/>
		<path fill="#FFFFFF" d="M625.4,184.4c2.5,0,4.2,0.8,5.6,2.2c0.2,0.2,0.4,0.5,0.4,0.9c0,0.7-0.5,1.2-1.2,1.2
			c-0.3,0-0.6-0.1-0.8-0.3c-1.1-1.1-2.3-1.5-3.8-1.5c-3.7,0-6,2.8-6,6.7s2.3,6.7,6,6.7c1.5,0,2.7-0.4,3.8-1.5
			c0.2-0.2,0.5-0.3,0.8-0.3c0.7,0,1.2,0.5,1.2,1.2c0,0.4-0.2,0.7-0.4,0.9c-1.4,1.3-3.1,2.2-5.6,2.2c-5.2,0-8.7-4-8.7-9.1
			C616.7,188.3,620.2,184.4,625.4,184.4z"/>
		<path fill="#FFFFFF" d="M644.9,200.6v-20.8c0-1,0.6-1.6,1.6-1.6h6.6c7.5,0,12.3,5.2,12.3,12c0,6.8-4.9,12-12.3,12h-6.6
			C645.5,202.2,644.9,201.6,644.9,200.6z M653.2,199.5c5.8,0,9.2-4.2,9.2-9.3c0-5.2-3.3-9.4-9.2-9.4h-5.2v18.7H653.2z"/>
		<path fill="#FFFFFF" d="M677.6,184.4c5.3,0,8.4,4.1,8.4,8.6c0,0.9-0.6,1.4-1.6,1.4h-12.5c0.2,3.3,2.5,6,6.3,6
			c1.7,0,3.3-0.6,4.7-1.7c0.2-0.1,0.4-0.1,0.6-0.1c0.6,0,1.1,0.5,1.1,1.1c0,0.4-0.2,0.7-0.5,0.9c-1.7,1.3-3.8,2.1-6.2,2.1
			c-5.1,0-8.9-3.7-8.9-9.1C669,188.5,672.6,184.4,677.6,184.4z M671.9,192.4h11.4c0-2.6-1.8-5.8-5.7-5.8
			C673.9,186.6,672,189.7,671.9,192.4z"/>
		<path fill="#FFFFFF" d="M689.1,199.6c0-0.6,0.5-1.2,1.2-1.2c0.3,0,0.5,0.1,0.7,0.2c1.3,1,3,1.8,4.9,1.8c2.7,0,4.1-1.2,4.1-2.9
			c0-1.9-2.1-2.5-4.5-3.1c-3-0.7-6.3-1.5-6.3-5.1c0-2.7,2.3-5,6.5-5c2.5,0,4.4,0.8,5.8,1.9c0.3,0.2,0.5,0.5,0.5,0.9
			c0,0.6-0.5,1.2-1.2,1.2c-0.2,0-0.5-0.1-0.6-0.3c-1.1-0.9-2.6-1.5-4.4-1.5c-2.4,0-3.9,1.1-3.9,2.6c0,1.7,2,2.2,4.2,2.8
			c3,0.7,6.5,1.5,6.5,5.4c0,2.9-2.3,5.3-6.8,5.3c-2.4,0-4.5-0.6-6.2-2.1C689.3,200.4,689.1,200,689.1,199.6z"/>
		<path fill="#FFFFFF" d="M706.6,179.5c0-1,0.8-1.8,1.8-1.8c1,0,1.8,0.8,1.8,1.8c0,1-0.8,1.8-1.8,1.8
			C707.4,181.3,706.6,180.5,706.6,179.5z M707,201v-15c0-0.7,0.6-1.3,1.4-1.3c0.7,0,1.3,0.6,1.3,1.3v15c0,0.7-0.6,1.3-1.4,1.3
			C707.7,202.3,707,201.7,707,201z"/>
		<path fill="#FFFFFF" d="M730.4,186v15.7c0,5.8-4,7.6-8.3,7.6c-2.6,0-4.4-0.4-6.3-2c-0.3-0.2-0.5-0.5-0.5-0.9
			c0-0.6,0.5-1.2,1.2-1.2c0.3,0,0.5,0.1,0.7,0.3c1.4,1.2,2.8,1.6,4.9,1.6c2.9,0,5.6-1.4,5.6-5.2v-2.4c-1.3,1.8-3.4,3.1-5.8,3.1
			c-4.5,0-7.7-3.4-7.7-9c0-5.6,3.2-9,7.7-9c2.3,0,4.4,1.2,5.8,3.1V186c0-0.7,0.6-1.3,1.4-1.3C729.8,184.7,730.4,185.3,730.4,186z
			 M727.7,197.2v-7.6c-0.9-1.5-3-2.8-5.2-2.8c-3.5,0-5.6,2.8-5.6,6.6c0,3.8,2.1,6.6,5.6,6.6C724.7,200,726.8,198.7,727.7,197.2z"/>
		<path fill="#FFFFFF" d="M750.2,190v11c0,0.7-0.6,1.3-1.4,1.3c-0.7,0-1.3-0.6-1.3-1.3v-10.2c0-3.1-1.5-4-3.9-4
			c-2.1,0-4.1,1.3-5.1,2.7V201c0,0.7-0.6,1.3-1.3,1.3c-0.8,0-1.4-0.6-1.4-1.3v-15c0-0.7,0.6-1.3,1.3-1.3c0.8,0,1.4,0.6,1.4,1.3v1.4
			c1.2-1.4,3.5-3,6.2-3C748.3,184.4,750.2,186.2,750.2,190z"/>
		<path fill="#FFFFFF" d="M763.2,184.4c5.3,0,8.4,4.1,8.4,8.6c0,0.9-0.6,1.4-1.6,1.4h-12.5c0.2,3.3,2.5,6,6.3,6
			c1.7,0,3.3-0.6,4.7-1.7c0.2-0.1,0.4-0.1,0.6-0.1c0.6,0,1.1,0.5,1.1,1.1c0,0.4-0.2,0.7-0.5,0.9c-1.7,1.3-3.8,2.1-6.2,2.1
			c-5.1,0-8.9-3.7-8.9-9.1C754.6,188.5,758.2,184.4,763.2,184.4z M757.5,192.4h11.4c0-2.6-1.8-5.8-5.7-5.8
			C759.5,186.6,757.6,189.7,757.5,192.4z"/>
		<path fill="#FFFFFF" d="M784.6,185.8c0,0.6-0.5,1.2-1.5,1.3c-1.6,0.1-3.7,1.3-4.5,2.7V201c0,0.7-0.6,1.3-1.3,1.3
			c-0.8,0-1.4-0.6-1.4-1.3v-15c0-0.7,0.6-1.3,1.3-1.3c0.8,0,1.4,0.6,1.4,1.3v1.6c1-1.4,2.5-2.6,3.9-2.9c0.4-0.1,0.6-0.2,0.9-0.2
			C784.2,184.5,784.6,185.1,784.6,185.8z"/>
	</g>
</g>
<g id="Layer_2">
</g>
</svg>
